<?xml version="1.0" encoding="UTF-8" standalone="no"?>
<!-- Created with Inkscape (http://www.inkscape.org/) -->

<svg
   width="180"
   height="180"
   viewBox="0 0 180 180"
   version="1.1"
   id="svg5"
   inkscape:version="1.1.2 (0a00cf5339, 2022-02-04)"
   sodipodi:docname="favicon.svg"
   xmlns:inkscape="http://www.inkscape.org/namespaces/inkscape"
   xmlns:sodipodi="http://sodipodi.sourceforge.net/DTD/sodipodi-0.dtd"
   xmlns:xlink="http://www.w3.org/1999/xlink"
   xmlns="http://www.w3.org/2000/svg"
   xmlns:svg="http://www.w3.org/2000/svg">
  <sodipodi:namedview
     id="namedview7"
     pagecolor="#505050"
     bordercolor="#ffffff"
     borderopacity="1"
     inkscape:pageshadow="0"
     inkscape:pageopacity="0"
     inkscape:pagecheckerboard="1"
     inkscape:document-units="px"
     showgrid="false"
     inkscape:zoom="1.3055556"
     inkscape:cx="64.723404"
     inkscape:cy="72.382979"
     inkscape:window-width="1366"
     inkscape:window-height="704"
     inkscape:window-x="0"
     inkscape:window-y="0"
     inkscape:window-maximized="1"
     inkscape:current-layer="layer1" />
  <defs
     id="defs2">
    <linearGradient
       inkscape:collect="always"
       id="linearGradient1189">
      <stop
         style="stop-color:#00112b;stop-opacity:1"
         offset="0"
         id="stop1185" />
      <stop
         style="stop-color:#0055d4;stop-opacity:1"
         offset="1"
         id="stop1187" />
    </linearGradient>
    <linearGradient
       inkscape:collect="always"
       xlink:href="#linearGradient1189"
       id="linearGradient1191"
       x1="17.588235"
       y1="90.304694"
       x2="158.04844"
       y2="90.304694"
       gradientUnits="userSpaceOnUse" />
  </defs>
  <g
     inkscape:label="Capa 1"
     inkscape:groupmode="layer"
     id="layer1">
    <path
       id="path872"
       style="fill:url(#linearGradient1191);stroke-width:0.971775;fill-opacity:1"
       d="m 131.11328,2.3691406 c -0.32772,0.00412 -1.54616,1.6714767 -2.70703,3.7050782 -3.6883,6.4611192 -10.74232,14.3873722 -16.97461,19.0722652 -5.47529,4.11585 -6.3855,4.479298 -9.77734,3.90625 -4.8911,-0.826427 -23.09308,-0.829422 -26.851566,-0.0039 -1.891054,0.415346 -3.975461,0.107967 -5.857422,-0.865234 C 64.103902,25.679993 54.69489,16.340656 49.804688,9.1835938 L 45.203125,2.4492188 42.589844,4.5917969 C 33.913605,11.703403 30.317925,20.5571 30.867188,33.458984 c 0.138486,3.253187 0.239885,3.14283 2.33789,-2.5 2.116848,-5.693517 7.972034,-14.992187 9.439453,-14.992187 0.393083,0 1.869884,1.97312 3.283203,4.384765 1.413322,2.411647 5.263732,7.002772 8.554688,10.203126 6.365843,6.190595 6.482391,6.626584 1.177734,4.410156 -1.853494,-0.774441 -3.371094,-1.075177 -3.371094,-0.667969 10e-7,1.037508 4.905778,5.501053 7.53125,6.851563 2.712311,1.39518 2.76214,3.502334 0.179688,7.738281 l -2.001953,3.283203 -2.984375,-2.796875 C 53.371858,47.835301 50.775716,44.63398 49.244141,42.257812 L 46.458984,37.9375 v 4.132812 c 0,2.472316 -0.385559,3.897364 -0.958984,3.542969 -1.254055,-0.77505 -3.789118,-9.697784 -4.074219,-14.341797 -0.123045,-2.004285 -0.501159,-3.644531 -0.841797,-3.644531 -1.283646,0 -3.238893,8.561523 -3.773437,16.521485 l -0.554688,8.259765 -2.267578,-2.267578 c -1.24712,-1.247117 -2.512009,-2.023147 -2.810547,-1.724609 -0.29854,0.298538 -0.0029,3.08342 0.65625,6.189453 1.184683,5.582476 1.161555,5.708806 -1.978515,10.957031 -5.872308,9.81481 -7.104908,11.434713 -9.996094,13.142578 -2.855364,1.686711 -2.862969,1.713263 -0.888672,3.25 1.094976,0.852304 2.722396,1.987008 3.615235,2.521484 1.514513,0.906628 1.514178,1.263911 0.0098,5.34375 -3.27147,8.871547 -2.93445,26.079158 0.689453,35.228518 1.370143,3.45924 2.051335,3.36803 3.648438,-0.48633 1.084577,-2.61747 1.373654,-2.8256 1.68164,-1.21484 1.964986,10.27693 2.887943,13.37309 5.417969,18.16601 1.60652,3.0434 3.74742,6.28093 4.757813,7.19531 1.764681,1.59703 1.83789,1.5428 1.83789,-1.40234 0,-3.98236 0.883187,-3.82374 4.027344,0.72656 1.413642,2.04587 6.959226,7.27443 12.324219,11.61914 5.364984,4.34471 11.860848,10.30262 14.435547,13.23828 2.574698,2.93574 4.79671,5.34361 4.9375,5.34961 0.140792,0.007 -0.42434,-1.62655 -1.25586,-3.63085 -2.712573,-6.53835 -7.399282,-13.46949 -15.701172,-23.21876 -4.486258,-5.26838 -9.016609,-11.20587 -10.066406,-13.19335 -2.32887,-4.409 -4.781351,-14.45326 -4.800781,-19.66016 -0.01818,-4.8585 -1.255934,-3.76837 -4.341797,3.82422 l -2.283203,5.61914 -1.191406,-5.71875 c -0.72621,-3.48451 -0.984312,-9.22695 -0.660157,-14.70508 0.292544,-4.94391 0.349821,-8.990234 0.126954,-8.990234 -0.222859,0 -2.210679,1.632814 -4.417969,3.626954 l -4.013672,3.625 0.707031,-4.35352 C 29.492816,95.06271 32.477705,88.84717 36.5,84.71875 c 4.009464,-4.115263 5.099609,-4.485856 5.099609,-1.736328 0,1.048906 0.893634,4.296323 1.986329,7.216797 1.932217,5.164325 2.12107,5.338443 6.835937,6.349609 5.481451,1.17555 11.468521,3.974482 16.367187,7.650392 1.828525,1.37213 2.957483,1.86858 2.507813,1.10351 -3.563412,-6.062759 -6.976829,-9.889601 -11.060547,-12.402339 -4.75017,-2.922806 -6.332334,-5.553122 -7.105469,-11.808594 -0.253031,-2.047373 0.290591,-2.614144 3.587891,-3.730469 2.397087,-0.81161 6.215496,-1.140734 9.960938,-0.857422 3.340474,0.252677 6.074218,0.321289 6.074218,0.150391 0,-0.170895 -0.427966,-1.433707 -0.949218,-2.804688 -1.324084,-3.482607 0.208377,-3.105142 3.74414,0.921875 4.14771,4.723982 5.958763,8.526333 8.058594,16.925782 1.873815,7.495338 4.362583,12.751064 6.351562,13.414064 1.624875,0.54163 4.890214,-6.300771 6.669922,-13.974611 1.821797,-7.855419 3.342149,-10.931896 7.875004,-15.949219 3.67159,-4.064002 5.92471,-5.102296 4.23828,-1.951172 -1.79625,3.356322 -1.19612,3.784525 4.58203,3.265625 3.07325,-0.275984 7.49817,0.01519 9.83203,0.646485 l 4.24219,1.146484 -0.60547,3.789062 c -0.92207,5.766287 -2.35801,8.170563 -6.07422,10.171875 -3.80531,2.049302 -8.29977,6.814346 -10.57031,11.205081 l -1.51172,2.92187 4.51758,-3.44726 c 2.72218,-2.07789 7.40619,-4.29705 11.78711,-5.585941 7.97706,-2.346888 8.92742,-3.360103 11.04101,-11.753906 0.62595,-2.485879 1.43848,-4.519531 1.80469,-4.519531 1.35482,0 6.73365,6.447201 8.76953,10.511719 1.15607,2.308083 2.35778,6.352809 2.66992,8.988279 l 0.56836,4.79297 -3.60742,-3.40039 c -1.98316,-1.87032 -3.928,-3.402344 -4.32227,-3.402344 -0.3943,0 -0.37773,3.161784 0.0352,7.025394 0.41339,3.86874 0.33709,9.87131 -0.16797,13.36132 -0.5044,3.48543 -0.92515,6.66555 -0.93554,7.06641 -0.0405,1.53422 -1.9629,0.64476 -1.9629,-0.9082 0,-1.81492 -3.89893,-10.33546 -4.46875,-9.76563 -0.1979,0.1979 -0.83389,3.82894 -1.41211,8.06836 -1.42636,10.45841 -4.27858,16.23205 -13.27343,26.86914 -7.99507,9.45476 -12.6158,15.79072 -15.08399,20.68164 -3.61747,7.16833 -2.51857,6.93503 5.92188,-1.25781 4.79342,-4.65279 12.68931,-12.21742 17.54492,-16.80859 8.38716,-7.93039 8.82814,-8.20984 8.82812,-5.58789 0,5.26144 3.08486,2.36831 8.10743,-7.60157 2.39049,-4.74509 4.83614,-15.51152 3.88086,-17.08984 -0.24262,-0.40087 -0.008,-0.72852 0.52343,-0.72852 0.53142,0 1.52095,1.53007 2.19727,3.4004 1.43985,3.98181 1.96327,3.61304 4.15625,-2.91602 2.81331,-8.37582 3.0754,-19.21902 0.69141,-28.646484 l -2.07813,-8.220704 2.92188,-2.287109 c 3.54407,-2.773659 3.61804,-3.458784 0.53125,-4.865234 -2.32237,-1.058126 -3.66985,-2.882297 -10.04493,-13.574219 -2.51863,-4.224094 -2.88849,-5.54963 -2.11132,-7.59375 0.51788,-1.362155 0.9414,-4.055344 0.9414,-5.984375 v -3.507813 l -2.28906,2.152344 -2.29102,2.150391 -0.54882,-8.054688 C 139.17627,39.512783 138.14536,33.701678 137.1875,31.029297 L 135.44531,26.169922 134.70312,32 c -0.76514,6.005452 -3.356,14.091797 -4.51562,14.091797 -0.36049,0 -0.53442,-2.078426 -0.38477,-4.617188 l 0.27344,-4.615234 -1.88281,3.400391 c -1.03535,1.870667 -3.49717,5.274874 -5.4707,7.564453 -3.05087,3.539436 -3.81273,3.976725 -5.0918,2.916015 -1.41842,-1.176248 -4.58016,-7.568613 -3.93359,-7.953125 5.01087,-2.979902 8.69387,-5.819862 9.5,-7.326171 0.9868,-1.843844 0.90234,-1.862021 -2.35743,-0.5 -5.79731,2.422269 -5.65619,1.600354 0.7461,-4.388672 3.41073,-3.190584 7.2506,-7.781711 8.53515,-10.203125 1.28457,-2.421414 2.6262,-4.402344 2.98047,-4.402344 1.34503,0 6.07187,6.512925 8.11133,11.175781 4.56799,10.443925 4.41327,10.369844 4.05469,1.94336 -0.40641,-9.550489 -2.69243,-15.107374 -8.98438,-21.8339849 -2.51609,-2.689897 -4.84221,-4.8868825 -5.16992,-4.8828125 z M 64.210938,79.130859 c -2.611334,0 -5.486798,0.54675 -6.390626,1.214844 -1.532263,1.132623 -1.511763,1.431036 0.300782,4.398438 2.154056,3.526492 5.266577,5.076171 10.191406,5.076171 2.406736,10e-7 3.858679,0.72582 5.525391,2.759766 1.350873,1.64853 2.381194,2.264902 2.560547,1.53125 0.634686,-2.596279 -2.038822,-9.579838 -4.677735,-12.21875 -2.280823,-2.280813 -3.588695,-2.761719 -7.509765,-2.761719 z m 47.787112,0 c -6.67847,0 -12.14353,6.042672 -12.06055,13.332032 l 0.03125,2.703125 1.99219,-2.671875 c 1.63301,-2.188797 2.7483,-2.673829 6.15625,-2.673829 4.40784,0 8.37474,-2.318181 10.38281,-6.070312 1.48349,-2.77193 -1.11621,-4.619141 -6.50195,-4.619141 z m 1.96875,2.916016 c 0.76847,0 -0.73365,3.356435 -1.8418,4.115234 -1.55989,1.068118 -5.21156,0.887951 -5.94141,-0.292968 -0.99575,-1.611164 0.31635,-2.290248 1.89453,-0.980469 1.13766,0.944166 1.81023,0.779618 3.42383,-0.833984 1.10472,-1.104715 2.21439,-2.007813 2.46485,-2.007813 z m -51.472659,0.07422 c 0.505861,-0.161108 1.344413,0.49567 2.216797,1.892578 1.012899,1.621911 1.578558,1.777698 3.232421,0.892578 2.184405,-1.169056 3.379952,-0.682121 2.363282,0.962891 -1.597783,2.58526 -8.298829,0.519309 -8.298829,-2.558594 0,-0.702134 0.182812,-1.092789 0.486329,-1.189453 z m 55.937499,26.164066 c -3.81744,0 -4.81255,1.63177 -5.80273,9.51757 -0.47412,3.77585 -1.15693,7.44278 -1.51758,8.14844 -0.36065,0.70565 0.41302,0.0338 1.7207,-1.49414 1.30766,-1.52794 2.88158,-4.45673 3.49609,-6.50781 0.61452,-2.05109 2.23734,-4.6094 3.60547,-5.68555 2.94279,-2.31481 2.31416,-3.97851 -1.50195,-3.97851 z m -60.296874,0.0312 c -1.522846,-0.0123 -3.044364,0.3406 -3.494141,1.06836 -0.373822,0.60487 0.08223,1.52561 1.013672,2.04687 0.931447,0.52128 2.782289,3.41556 4.113281,6.43164 1.330992,3.01607 2.878302,6.04163 3.439453,6.72266 0.561151,0.68102 1.124639,1.11723 1.251953,0.9707 0.429767,-0.49467 -2.103424,-14.94896 -2.824218,-16.11523 -0.45428,-0.735 -1.977155,-1.11274 -3.5,-1.125 z m 30.291015,3.125 c -1.372588,0.0246 -2.767106,0.22518 -4.121093,0.63086 -5.583975,1.67298 -5.278127,2.51628 0.955078,2.63085 3.06354,0.0563 6.409521,0.59002 7.435546,1.18555 1.543742,0.89605 0.978593,1.08878 -3.283203,1.11328 -2.832539,0.0163 -6.440688,0.69629 -8.017578,1.51172 -4.600373,2.37895 -3.478466,6.58569 1.992188,7.47071 l 2.429687,0.39257 -2.642578,1.29883 c -2.875237,1.41466 -2.734701,2.95899 0.269531,2.95899 2.532349,0 2.400825,2.57319 -0.203125,3.96679 -2.605793,1.3946 -8.815435,1.36719 -11.464843,-0.0508 -3.051401,-1.63306 -2.41004,0.47378 0.929687,3.05664 1.607529,1.24321 4.708203,3.68093 6.892578,5.41797 2.86179,2.27576 4.965786,3.15573 7.525391,3.14453 5.693709,-0.0239 6.496386,-1.38887 1.589844,-2.70117 -4.855997,-1.29877 -5.303847,-2.05544 -2.31836,-3.91992 1.712121,-1.06922 2.571699,-1.01735 5.390625,0.32031 5.127647,2.43323 11.137464,0.63424 14.654294,-4.38672 1.42466,-2.03397 1.39993,-2.0856 -0.51172,-1.0625 -2.92148,1.56352 -10.105473,1.31494 -12.607418,-0.4375 -2.956788,-2.07101 -2.714141,-2.98732 0.998047,-3.76367 l 3.158203,-0.66211 -2.914062,-1.57031 -2.916016,-1.57031 2.914063,-0.78711 c 3.548843,-0.9573 5.345703,-3.23213 5.345703,-6.76953 0,-4.31002 -5.532588,-7.52456 -11.480469,-7.41797 z" />
  </g>
</svg>
